<svg xmlns="http://www.w3.org/2000/svg" xmlns:xlink="http://www.w3.org/1999/xlink" viewBox="0 0 227.29 46.16">
  <defs>
    <linearGradient id="linear-gradient" x1="1.75" y1="24.36" x2="213.24" y2="-25.14" gradientUnits="userSpaceOnUse">
      <stop offset="0" stop-color="#e399b5"/>
      <stop offset="0.34" stop-color="#d48cb2"/>
      <stop offset="1" stop-color="#ac69ab"/>
    </linearGradient>
    <linearGradient id="linear-gradient-2" x1="5.03" y1="38.35" x2="216.51" y2="-11.15" xlink:href="#linear-gradient"/>
    <linearGradient id="linear-gradient-3" x1="4.91" y1="37.84" x2="216.4" y2="-11.66" xlink:href="#linear-gradient"/>
    <linearGradient id="linear-gradient-4" x1="7.61" y1="49.38" x2="219.1" y2="-0.11" xlink:href="#linear-gradient"/>
    <linearGradient id="linear-gradient-5" x1="9.32" y1="56.71" x2="220.81" y2="7.21" xlink:href="#linear-gradient"/>
    <linearGradient id="linear-gradient-6" x1="11" y1="63.89" x2="222.49" y2="14.39" xlink:href="#linear-gradient"/>
    <linearGradient id="linear-gradient-7" x1="12.25" y1="69.2" x2="223.74" y2="19.7" xlink:href="#linear-gradient"/>
    <linearGradient id="linear-gradient-8" x1="12.81" y1="71.6" x2="224.3" y2="22.1" xlink:href="#linear-gradient"/>
  </defs>
  <g id="Layer_2" data-name="Layer 2">
    <g id="Layer_1-2" data-name="Layer 1">
      <g>
        <path d="M7.3,4.31V18.92a5.71,5.71,0,0,1-.38,1.92,4.6,4.6,0,0,1-1.35,1.91,5.17,5.17,0,0,1,1.32,1.92,5.58,5.58,0,0,1,.41,1.92V41.85h3.3v4.31H3.89A1.45,1.45,0,0,1,3,45.78a1.8,1.8,0,0,1-.44-1.41V28.14a4,4,0,0,0-.69-2.33A2.64,2.64,0,0,0,0,24.61V20.78a1.76,1.76,0,0,0,1.08-.36,3.19,3.19,0,0,0,.81-.9,4.15,4.15,0,0,0,.48-1.11,4.66,4.66,0,0,0,.15-1.05V1.8c0-.76.17-1.25.53-1.47A1.82,1.82,0,0,1,3.89,0H10.6V4.31Z" fill="url(#linear-gradient)"/>
        <path d="M30.36,28.62a17.3,17.3,0,0,1,1.13-6.23,15.39,15.39,0,0,1,3.24-5.12,15.61,15.61,0,0,1,5-3.47,15.8,15.8,0,0,1,6.49-1.29,15.15,15.15,0,0,1,8.06,2.07,13.46,13.46,0,0,1,5.12,5.54l-5.15,1.62a8.58,8.58,0,0,0-3.36-3.45,9.46,9.46,0,0,0-4.79-1.23,9.76,9.76,0,0,0-4.07.87,9.66,9.66,0,0,0-3.29,2.43A11.91,11.91,0,0,0,36.55,24a12.9,12.9,0,0,0-.8,4.61,12.58,12.58,0,0,0,.83,4.61A12.15,12.15,0,0,0,38.83,37a10.35,10.35,0,0,0,3.29,2.49,9.29,9.29,0,0,0,4,.9A9.79,9.79,0,0,0,48.89,40a10.4,10.4,0,0,0,2.45-1,9.29,9.29,0,0,0,1.95-1.53,5.18,5.18,0,0,0,1.2-1.88l5.15,1.55a11.1,11.1,0,0,1-2,3.18,12.92,12.92,0,0,1-3,2.45,16.6,16.6,0,0,1-8.33,2.22,15.63,15.63,0,0,1-11.49-4.85,16.06,16.06,0,0,1-3.27-5.18A17.1,17.1,0,0,1,30.36,28.62Z" fill="url(#linear-gradient-2)"/>
        <path d="M65.62.6h5.27V36.23A3.82,3.82,0,0,0,71.82,39a3.41,3.41,0,0,0,2.61,1A7,7,0,0,0,76,39.73a12.75,12.75,0,0,0,1.68-.51l.84,4.25a17.2,17.2,0,0,1-3.12.9,16.27,16.27,0,0,1-3.17.36A6.57,6.57,0,0,1,67.39,43a6.48,6.48,0,0,1-1.77-4.85Z" fill="url(#linear-gradient-3)"/>
        <path d="M95.92,44.91a15.39,15.39,0,0,1-6.44-1.32,15.64,15.64,0,0,1-5-3.53,16.14,16.14,0,0,1-3.2-5.15,16.89,16.89,0,0,1-1.14-6.17,16.68,16.68,0,0,1,4.4-11.38,15.64,15.64,0,0,1,5-3.53,15.27,15.27,0,0,1,6.38-1.32,15.49,15.49,0,0,1,11.41,4.85,16.68,16.68,0,0,1,4.4,11.38,16.89,16.89,0,0,1-1.14,6.17,15.51,15.51,0,0,1-8.23,8.68A15.42,15.42,0,0,1,95.92,44.91ZM85.56,28.8a12.51,12.51,0,0,0,.81,4.55A11.49,11.49,0,0,0,88.59,37a10.33,10.33,0,0,0,3.29,2.46,9.52,9.52,0,0,0,8.08,0A10.47,10.47,0,0,0,103.28,37a11.49,11.49,0,0,0,2.25-3.71,12.75,12.75,0,0,0,.81-4.58,12.58,12.58,0,0,0-.81-4.52,11.6,11.6,0,0,0-2.25-3.71A10.47,10.47,0,0,0,100,18a9.26,9.26,0,0,0-4-.9,9,9,0,0,0-4,.93,10.51,10.51,0,0,0-3.29,2.52,11.89,11.89,0,0,0-2.22,3.71A12.75,12.75,0,0,0,85.56,28.8Z" fill="url(#linear-gradient-4)"/>
        <path d="M128.91,44.91a24.17,24.17,0,0,1-7.42-1.17,18.44,18.44,0,0,1-6.29-3.38l2.28-3.54A22.12,22.12,0,0,0,123,40,16.21,16.21,0,0,0,128.79,41a9.58,9.58,0,0,0,5.42-1.35,4.32,4.32,0,0,0,2-3.8,3.43,3.43,0,0,0-.54-1.95,4.54,4.54,0,0,0-1.62-1.41,12.83,12.83,0,0,0-2.75-1.07q-1.68-.48-3.9-1c-1.87-.48-3.49-.94-4.84-1.38a13.17,13.17,0,0,1-3.36-1.56,5.34,5.34,0,0,1-1.91-2.15,7.23,7.23,0,0,1-.6-3.12,9.06,9.06,0,0,1,.92-4.16A8.85,8.85,0,0,1,120.17,15a11.43,11.43,0,0,1,3.8-1.86,17,17,0,0,1,4.7-.63,18.7,18.7,0,0,1,6.59,1.14,16.29,16.29,0,0,1,5.15,3L138,19.82a13.33,13.33,0,0,0-4.43-2.61,15.2,15.2,0,0,0-5-.86,9.28,9.28,0,0,0-4.88,1.22,4.26,4.26,0,0,0-2,3.93,3.73,3.73,0,0,0,.39,1.79,3.3,3.3,0,0,0,1.28,1.26,10.17,10.17,0,0,0,2.31,1c.94.28,2.06.58,3.38.9,2.08.47,3.88,1,5.42,1.46a15.55,15.55,0,0,1,3.83,1.77,6.3,6.3,0,0,1,3,5.75A8.28,8.28,0,0,1,138,42.33C135.72,44.05,132.7,44.91,128.91,44.91Z" fill="url(#linear-gradient-5)"/>
        <path d="M161.31,44.91a15.87,15.87,0,0,1-6.47-1.29,15.41,15.41,0,0,1-5-3.5,16.06,16.06,0,0,1-3.27-5.18,17.1,17.1,0,0,1-1.16-6.26,16.9,16.9,0,0,1,1.16-6.23,15.89,15.89,0,0,1,3.3-5.15,15.64,15.64,0,0,1,5.06-3.5,15.86,15.86,0,0,1,6.46-1.29,15.18,15.18,0,0,1,14.52,9.91,16.77,16.77,0,0,1,1.11,6q0,.66,0,1.2a6.32,6.32,0,0,1-.09.84H151A12.36,12.36,0,0,0,152,34.73,10.91,10.91,0,0,0,154.36,38a10.78,10.78,0,0,0,3.26,2.16,9.75,9.75,0,0,0,3.86.78,10.32,10.32,0,0,0,2.82-.39,12.38,12.38,0,0,0,2.57-1A9,9,0,0,0,169,37.9a6.57,6.57,0,0,0,1.41-2.15L175,37a11.51,11.51,0,0,1-2.13,3.18,14.56,14.56,0,0,1-3.11,2.48,16.12,16.12,0,0,1-3.93,1.65A16.59,16.59,0,0,1,161.31,44.91ZM172,26.59a11.29,11.29,0,0,0-1.11-4.11,11,11,0,0,0-2.33-3.2,10.53,10.53,0,0,0-3.26-2.07,10.94,10.94,0,0,0-7.91,0,10.14,10.14,0,0,0-3.26,2.1,10.71,10.71,0,0,0-2.28,3.2,12,12,0,0,0-1,4.08Z" fill="url(#linear-gradient-6)"/>
        <path d="M199.26,17.66a13.5,13.5,0,0,0-7,2A10.36,10.36,0,0,0,188,25V44.31h-5.27V13.05h4.91V20.3a15.9,15.9,0,0,1,4.25-5.36,8.78,8.78,0,0,1,5.63-2.13h1a3.62,3.62,0,0,1,.71.06Z" fill="url(#linear-gradient-7)"/>
        <path d="M216.69,4.31V0h6.7a1.78,1.78,0,0,1,.84.33q.54.33.54,1.47V17.36a4.28,4.28,0,0,0,.63,2.16,3.42,3.42,0,0,0,.78.9,1.72,1.72,0,0,0,1.11.36v3.83a2.58,2.58,0,0,0-1.86,1.2,4.18,4.18,0,0,0-.66,2.33V44.37a1.74,1.74,0,0,1-.48,1.41,1.51,1.51,0,0,1-.9.38h-6.7V41.85H220V26.59a5.74,5.74,0,0,1,.39-1.92,4.63,4.63,0,0,1,1.35-1.92,4.6,4.6,0,0,1-1.35-1.91,5.74,5.74,0,0,1-.39-1.92V4.31Z" fill="url(#linear-gradient-8)"/>
      </g>
    </g>
  </g>
</svg>
